<?xml version="1.0" encoding="UTF-8"?>
<svg width="120px" height="120px" viewBox="0 0 120 120" version="1.1" xmlns="http://www.w3.org/2000/svg" xmlns:xlink="http://www.w3.org/1999/xlink">
    <!-- Generator: Sketch 49.3 (51167) - http://www.bohemiancoding.com/sketch -->
    <title>family</title>
    <desc>Created with Sketch.</desc>
    <defs>
        <rect id="path-1" x="0" y="0" width="120" height="120"></rect>
        <polygon id="path-3" points="99.9275 56.53225 99.70975 60.85875 99.34725 64.59525 98.84 67.97225 98.18875 71.08425 97.3935 73.98 96.455 76.68775 95.37375 79.225 94.15025 81.60275 92.785 83.828 91.27825 85.906 89.62975 87.83925 87.83925 89.62975 85.906 91.27825 83.828 92.785 81.60275 94.15025 79.225 95.37375 76.68775 96.455 73.98 97.3935 71.08425 98.18875 67.97225 98.84 64.59525 99.34725 60.85875 99.70975 56.53225 99.9275 50 100 43.46775 99.9275 39.14125 99.70975 35.40475 99.34725 32.02775 98.84 28.91575 98.18875 26.02 97.3935 23.31225 96.455 20.775 95.37375 18.39725 94.15025 16.172 92.785 14.094 91.27825 12.16075 89.62975 10.37025 87.83925 8.72175 85.906 7.215 83.828 5.84975 81.60275 4.62625 79.225 3.545 76.68775 2.6065 73.98 1.81125 71.08425 1.16 67.97225 0.65275 64.59525 0.29025 60.85875 0.0725 56.53225 0 50.00025 0.0725 43.46775 0.29025 39.14125 0.65275 35.40475 1.16 32.02775 1.81125 28.91575 2.6065 26.02 3.545 23.31225 4.62625 20.775 5.84975 18.39725 7.215 16.172 8.72175 14.094 10.37025 12.16075 12.16075 10.37025 14.094 8.72175 16.172 7.215 18.39725 5.84975 20.775 4.62625 23.31225 3.545 26.02 2.6065 28.91575 1.81125 32.02775 1.16 35.40475 0.65275 39.14125 0.29025 43.46775 0.0725 49.99975 0 56.53225 0.0725 60.85875 0.29025 64.59525 0.65275 67.97225 1.16 71.08425 1.81125 73.98 2.6065 76.68775 3.545 79.225 4.62625 81.60275 5.84975 83.828 7.215 85.906 8.72175 87.83925 10.37025 89.62975 12.16075 91.27825 14.094 92.785 16.172 94.15025 18.39725 95.37375 20.775 96.455 23.31225 97.3935 26.02 98.18875 28.91575 98.84 32.02775 99.34725 35.40475 99.70975 39.14125 99.9275 43.46775 100 49.99975"></polygon>
        <polygon id="path-5" points="0.358822518 0.0609909894 31.895814 0.0609909894 31.895814 49.9614815 0.358822518 49.9614815"></polygon>
    </defs>
    <g id="community" stroke="none" stroke-width="1" fill="none" fill-rule="evenodd">
        <g id="icon">
            <g id="family">
                <mask id="mask-2" fill="white">
                    <use xlink:href="#path-1"></use>
                </mask>
                <use id="Rectangle" fill="#FFFFFF" xlink:href="#path-1"></use>
                <g id="back" mask="url(#mask-2)">
                    <g transform="translate(10.000000, 20.000000)">
                        <mask id="mask-4" fill="white">
                            <use xlink:href="#path-3"></use>
                        </mask>
                        <use id="Combined-Shape-Copy-23" stroke="none" fill="#F7ECDF" fill-rule="evenodd" xlink:href="#path-3"></use>
                        <path d="M83,75.4365064 C81.1766996,84.3450066 80.010033,93.0328378 79.5,101.5 C75.7951483,101.5 72.7951483,101.5 66.4123496,101.061371 C65.8307493,92.1721935 65.3599661,82.851339 65,73.0988079 C68.9720775,72.5746521 70.577412,74.2965131 74.523234,74.5072713 C77.3663263,74.6581259 80.1869139,75.0314271 83,75.4365064 Z" id="Fill-190" stroke="none" fill="#B7654A" fill-rule="evenodd" mask="url(#mask-4)"></path>
                        <path d="M67,78.32105 C65.8234256,87.0477867 64.9900922,95.2741034 64.5,103 C60.0743504,103.440267 55.5743504,103.440267 50.8660479,103.440267 C50.4678929,95.1615002 49.8458769,86.0459847 49,76.0937202 C52.9691538,75.5959888 54.5748228,77.2332247 58.5214673,77.4351761 C61.3651521,77.5792176 64.1863276,77.9343736 67,78.32105 Z" id="Fill-191" stroke="none" fill="#B7654A" fill-rule="evenodd" mask="url(#mask-4)"></path>
                        <path d="M15.3807065,73.1701624 C15.2540002,73.1734494 15.1339627,73.1668754 15.0139252,73.1537276 C11.2927624,77.7259071 9.10207785,86.41009 8.33517154,91.7382734 C7.38820896,98.3450893 43.7665937,103.367381 44,102 C44.240816,100.632619 46.3622396,100.629536 45.0840624,92.2148845 C43.9170311,84.5693851 38.0707598,74.6460133 35.8700721,72 C29.0383076,73.0649793 22.0961383,73.1340057 15.3807065,73.1701624 Z" id="Fill-234" stroke="none" fill="#E15C4C" fill-rule="evenodd" mask="url(#mask-4)"></path>
                    </g>
                </g>
                <g id="pic" mask="url(#mask-2)">
                    <g transform="translate(7.000000, 5.000000)">
                        <path d="M63.9643174,89.6707468 C64.7131578,88.3128575 65.2475245,86.8154916 65.7637154,85.3575589 C65.8436887,85.1399461 65.9200268,84.9201426 66,84.700339 L38.2856354,73 C38.2856354,73 32.1022495,80.0260454 36.7007111,83.3756759 L60.5945357,94 C61.8704724,92.663653 63.0809766,91.2710771 63.9643174,89.6707468" id="Fill-169" fill="#DD722A"></path>
                        <path d="M91.4657097,17.6747141 C91.9793265,18.4363428 98.6818434,20.9270939 99.3775938,26.2701334 C99.9094239,30.3299705 101.883752,42.0519226 100.539606,42.9961384 C93.5201768,47.9372678 68.0979672,42.7539012 67.1180884,38.0797419 C66.1382096,33.4059463 71.4310123,21.2824479 76.5271108,18.6534833 C81.6195666,16.024155 89.5095947,14.7536828 91.4657097,17.6747141" id="Fill-170" fill="#7C4B2F"></path>
                        <path d="M67,56.6819919 C67,56.6819919 67.4918322,48.6641836 74.2472923,43.4475403 C77.3284764,41.0678357 83.6571997,40.5647663 85.1109979,41.3331582 C86.2103875,41.9137376 90.1848257,45.7843908 90.7779175,48.2956387 C91.7760476,52.5050253 89.1071346,62.8581935 88.7454932,64.1508956 C87.544844,68.4236316 70.1426632,65.0277269 67,56.6819919" id="Fill-171" fill="#76C5BC"></path>
                        <g id="Group-175" stroke-width="1" fill="none" transform="translate(74.000000, 43.000000)">
                            <mask id="mask-6" fill="white">
                                <use xlink:href="#path-5"></use>
                            </mask>
                            <g id="Clip-173"></g>
                            <path d="M0.703255814,1.42740741 C1.82325581,-1.75148148 9.92744186,1.36888889 12.2753488,3.19814815 L28.6660465,24.2344444 L28.7702326,30.7166667 L23.3153488,30.3785185 L3.32651163,17.3081481 C3.32651163,17.3081481 -0.844651163,5.84 0.703255814,1.42740741" id="Fill-172" fill="#93C454" mask="url(#mask-6)"></path>
                            <path d="M31.7655814,29.2359259 C31.3116279,27.4392593 30.507907,26.2003704 28.5060465,23.9977778 L5.34325581,40.5 L6.23255814,49.9614815 L26.7572093,37.2614815 C26.7572093,37.2614815 32.8595349,33.58 31.7655814,29.2359259" id="Fill-174" fill="#93C454" mask="url(#mask-6)"></path>
                        </g>
                        <path d="M58.8960904,37.1085821 C61.0876097,36.4456225 79.2574298,38.9650954 78.9972327,40.6888658 C78.7407003,42.4130134 78.2276356,45.8609314 76.5491811,45.9932971 C74.8743913,46.1256628 57.6060992,44.2691495 56.576305,42.9432303 C55.5465109,41.6169339 55.6601181,38.0879372 58.8960904,37.1085821" id="Fill-176" fill="#76C5BC"></path>
                        <path d="M97.2705749,32.4154381 C95.15471,39.4435589 87.5223536,44.8682647 80.9642614,42.3904249 C72.2830457,39.1126955 70.7297178,28.7290379 72.8455827,21.7005535 C74.9650768,14.6709783 82.1510329,11.170007 89.5402282,13.9612581 C96.9257941,16.7506912 99.3864397,25.3862265 97.2705749,32.4154381" id="Fill-177" fill="#F5C287"></path>
                        <path d="M77.3046018,30.5175977 C76.804606,31.5888472 76.9337716,32.6740138 77.5920993,32.9402697 C78.2545937,33.2068918 79.1920857,32.5560848 79.6920814,31.4830041 C80.1962437,30.4113883 80.0670782,29.3258555 79.4087505,29.0595997 C78.7462561,28.7929776 77.8087641,29.445982 77.3046018,30.5175977" id="Fill-178" fill="#70432A"></path>
                        <path d="M87.3047259,35.5170348 C86.8045264,36.5893277 86.9337446,37.6740721 87.5923405,37.9403142 C88.2509364,38.2069226 89.1929787,37.5554167 89.6973464,36.4834901 C90.1933775,35.4111972 90.0683277,34.3271852 89.4055634,34.0594782 C88.7469675,33.7932361 87.8049253,34.4458406 87.3047259,35.5170348" id="Fill-179" fill="#70432A"></path>
                        <path d="M94.0278794,37.9545815 C94.2444179,38.9920845 95.6817853,39.183294 96.6300744,38.8505894 C97.5783635,38.5190321 98.1719775,37.4088695 97.9554391,36.370984 C97.7351672,35.3330986 96.7943449,34.7625293 95.8460558,35.0944691 C94.8977667,35.4267913 93.811341,36.9170785 94.0278794,37.9545815" id="Fill-180" fill="#F5C287"></path>
                        <path d="M73.3233035,29.8339481 C74.2454035,29.3335697 74.1125245,27.8104121 73.5930882,26.9295151 C73.073652,26.047174 71.9019004,25.7395821 70.9798004,26.2395995 C70.0536737,26.741422 69.7275161,27.8613164 70.2469524,28.7429355 C70.7663886,29.6238325 72.3971768,30.3350485 73.3233035,29.8339481" id="Fill-181" fill="#F5C287"></path>
                        <path d="M82,34 C81.7798356,34.0079343 81.2540698,34.0453841 80.9681847,34.072678 C80.4884234,34.1136189 79.9626576,34.3180061 80.00209,34.9181554 C80.0119481,35.106674 80.1762499,35.3120132 80.3898423,35.5008492 C80.7677365,35.7709322 81.4906644,36.0870341 81.6582522,35.9778584 C81.4150856,35.5789225 81.1226284,35.5687667 80.8400292,35.2707549 C80.6855855,35.1342853 80.5015675,34.8788013 80.4949955,34.800728 C80.4785653,34.528106 80.7940247,34.4129001 81.0700518,34.350378 C81.2803581,34.3002333 81.8258401,34.294838 82,34" id="Fill-182" fill="#DE9A73"></path>
                        <path d="M84.1797995,20.3937301 C84.1797995,20.3937301 78.8329243,23.843511 77.0122371,24.9104608 C76.5923644,25.1572767 87.1114774,25.1576293 87.9177818,21.288614 C88.5122919,18.4421216 85.7403885,18.3779495 84.1797995,20.3937301" id="Fill-183" fill="#7C4B2F"></path>
                        <path d="M81.6624002,21.2675523 C85.4939847,20.3822266 88.0387894,20.9651353 88.0387894,20.9651353 C88.0387894,20.9651353 90.270885,13.9861075 89.9725534,13.8647626 C89.192578,13.5487369 81.8667593,11.3447907 77,15.5 C73.0462074,18.8776196 73.0970476,24.130307 73,26 C73,26 77.8344101,22.152878 81.6624002,21.2675523 Z" id="Fill-184" fill="#7C4B2F"></path>
                        <path d="M96.6779333,35 C96.6779333,35 94.209766,30.1308364 91.6772116,26.7929198 C89.1446573,23.4553642 88,20.9762023 88,20.9762023 C88,20.9762023 89.4343987,13.8823625 89.7420254,14.0014836 C90.5468625,14.3115593 97.2037603,16.7932481 98.6560442,23.2871509 C99.832895,28.5678236 97.6938167,33.5434743 96.6779333,35" id="Fill-185" fill="#7C4B2F"></path>
                        <path d="M80.0236544,38.8234738 C78.0984999,38.1462201 78.031261,36.4305109 78.0100277,36.4075937 C77.9640222,36.22152 78.0808054,36.0412611 78.2683665,36.0060302 C78.4559275,35.9707994 78.6470274,36.0935943 78.6930329,36.278984 C78.8876717,37.089294 78.9796827,37.6871927 80.2607599,38.1869238 C81.0110039,38.4790321 81.5559925,38.3996772 82.4407143,37.6981382 C82.5928864,37.581158 82.8229141,37.6386219 82.9326196,37.7973319 C83.045864,37.9550157 83.014014,38.1681112 82.8547641,38.2720935 C81.7435535,39.0126259 81.0180817,39.17202 80.0236544,38.8234738" id="Fill-186" fill="#CF7161"></path>
                        <path d="M83.9980092,46.7754247 C83.9980092,46.7754247 76.0797726,40.6630221 67.5263043,41.0146058 C58.972836,41.3669259 40.8502674,48.5340795 40.0192957,51.8757815 C39.5761109,53.6583662 46.8997411,53.6362771 48.3548648,66.6179996 C49.4000425,75.9458285 51.7267631,104 51.7267631,104 C51.7267631,104 62.0455845,103.932997 62.1416079,102.940095 C62.1933128,102.393023 62.3078023,98.3566212 62.3078023,98.3566212 C65.4285625,98.7177768 66.4146489,97.1505602 69.0626786,98.1736504 C69.3064303,98.2686332 69.5908072,103.542021 69.5908072,103.542021 C71.6405373,103.939991 86.2397861,103.363836 86.2619453,103.083673 C86.7383691,96.7989765 87.8684905,75.2216765 87.9903664,68.9922021 C88.215652,57.1027821 84.4190348,50.4525117 83.9980092,46.7754247" id="Fill-192" fill="#93C454"></path>
                        <path d="M52,44.4555164 C52,44.4555164 59.2592735,60.195039 60.5538501,73.9279205 C61.8521361,87.6604365 62.0153492,100 62.0153492,100 L69.1077002,100 C69.1077002,100 68.3954976,79.7541244 69.1077002,72.5678638 C69.8199028,65.3856237 81,43.7756708 81,43.7756708 L66.2737273,41 L52,44.4555164" id="Fill-193" fill="#70432A"></path>
                        <path d="M47.1350083,60.2446777 C46.542794,58.2265967 44.4395362,52.8398221 42.3147432,51.3437591 C41.9737714,51.2296588 41.6112645,51.1461796 41.2236334,51.1068096 C41.0441745,51.0882181 40.8754832,51.0510353 40.7175594,51 C40.4088901,51.1844561 40.1253451,51.3973462 39.8812811,51.6485127 L35,79.4627442 L37.996963,81 L44.9743236,79.5495042 L48,66.9142607 C47.9784649,64.5338291 47.8420762,62.6619277 47.1350083,60.2446777" id="Fill-194" fill="#93C454"></path>
                        <path d="M70.2070207,43.0973313 C70.8334833,42.9064225 71.4311431,42.6659131 72,42.3843673 L71.5823582,32 L60,32.2262358 L60.2880288,42.6380797 C63.0027003,44.6492234 66.8874887,44.1050442 70.2070207,43.0973313" id="Fill-195" fill="#E9AD7E"></path>
                        <path d="M60,72 L58.9316304,42 C58.9316304,42 50.0249892,44.1136013 50.0000606,45.805877 C49.9715707,47.4985197 60,72 60,72" id="Fill-196" fill="#C1D875"></path>
                        <path d="M69,71 L72.1146061,41 C72.1146061,41 82.0298089,41.9606305 81.9999326,43.6371032 C81.9700563,45.3113968 69,71 69,71" id="Fill-197" fill="#C1D875"></path>
                        <path d="M75.8962725,51.5453731 C75.6958095,51.3732242 75.5368216,51.2534357 74.5310506,50.6209674 C72.6508463,49.4362665 71.9354009,50.1828729 72.8409405,50.9098913 C73.7430238,51.6342728 74.1266684,51.7167686 73.8086927,52.0252806 C73.490717,52.3326624 72.0114386,52.2923562 70.9780175,52.4072477 C69.792521,52.5379603 69.6508144,53.700813 70.7395357,53.6514661 C71.8282569,53.5991057 73.2591477,53.5361979 73.290254,53.602496 C73.4665232,53.9622382 71.1750242,54.5811455 70.9503674,54.9702699 C70.7291669,55.3593942 70.8052046,55.8121797 71.4342435,55.7383478 C72.3225018,55.6340037 73.6462486,55.06595 74.1888811,54.9634894 C74.3029376,54.9405111 73.9642243,55.5880471 73.5356483,56.0984667 C73.0275784,56.70758 73.4596106,57.3792244 74.375519,56.7429892 C75.2879711,56.1060006 76.1209292,55.352237 76.7188618,54.2650997 C77.1474378,53.4898646 77.2338443,52.688261 75.8962725,51.5453731" id="Fill-198" fill="#F5C287"></path>
                        <path d="M92,53.1048988 C91.1964973,51.7526649 90.3893423,50.4008196 89.5529691,49.0633556 L89.5164462,49 C84.6260367,50.3355205 76.002992,52.2435736 76.002992,52.2435736 C76.002992,52.2435736 75.9737737,53.7742138 76.0979514,54.2942739 C76.2111722,54.7486463 85.5537171,56.116039 92,53.1048988" id="Fill-199" fill="#F5C287"></path>
                        <path d="M94.4621912,52.3061155 C94.6015934,52.1547472 94.7183898,52.023537 94.8276509,51.904788 C94.9595178,51.5683327 95.027335,51.2337098 94.9896588,50.9152134 C94.8050451,49.3850379 92.6725691,48.3848346 90.9997434,48 C88.3963142,48.5087146 83.4004429,50.050985 83.0462861,50.1737655 C82.7185027,50.2862838 84.2330881,54.4326013 84.4063989,54.9182259 C84.5797097,55.4023844 93.2565511,53.6343445 94.4621912,52.3061155" id="Fill-200" fill="#76C5BC"></path>
                        <path d="M65.2841384,50.0016999 C65.5365496,50.0065081 65.7301801,50.0226502 66.8746749,50.2094857 C69.0184416,50.5598025 69.1394607,51.5375982 68.015712,51.479899 C66.8954211,51.4218563 66.5496522,51.2370814 66.6153483,51.6547139 C66.6845021,52.0726898 67.849743,52.9752705 68.5827729,53.7095618 C69.4264488,54.5486047 68.8593879,55.4580543 68.0433735,54.7350968 C67.2308168,54.0121393 66.1623912,53.0666276 66.1001528,53.0930731 C65.754384,53.2369777 67.1651207,55.1173542 67.1132554,55.5322391 C67.0579324,55.9457502 66.7329097,56.2167304 66.2903256,55.7688746 C65.6644841,55.1352135 64.9729464,53.9018926 64.6133469,53.4876946 C64.5372777,53.3973678 64.423174,54.0688082 64.4542932,54.697661 C64.4957855,55.4487813 63.769671,55.6486679 63.4308175,54.6238197 C63.0954218,53.5989716 62.8914182,52.5435567 63.0608449,51.3991888 C63.181864,50.5821266 63.5829558,49.9632337 65.2841384,50.0016999" id="Fill-201" fill="#F5C287"></path>
                        <path d="M53,41.3635379 C54.4415769,40.9059535 55.8831537,40.4480145 57.3394782,40.0202032 L57.4095292,40 C60.4180374,43.9506092 66,50.6045467 66,50.6045467 C66,50.6045467 65.1040839,51.7011899 64.6911514,51.9904145 C64.3335224,52.243486 56.2149745,47.4539128 53,41.3635379" id="Fill-202" fill="#F5C287"></path>
                        <path d="M52.0183921,38.9548713 C52.0110352,38.758213 52.0036784,38.587346 52,38.4325985 C52.1140309,38.0983869 52.2758812,37.8050114 52.5076215,37.5872186 C53.6185033,36.5408819 55.8660158,37.0728265 57.3741666,37.7899665 C59.0147403,39.7447283 61.8029801,43.9232691 61.9942577,44.2302566 C62.1671433,44.5107365 58.3820527,46.7298586 57.9443211,46.9924279 C57.5065896,47.2535643 52.0809252,40.6850343 52.0183921,38.9548713" id="Fill-203" fill="#76C5BC"></path>
                        <path d="M75.9243059,25.1867518 C76.7660716,34.0070006 70.4751766,39.4203899 62.6311121,39.9582188 C52.4777789,40.6518025 50.0753945,32.6015522 48.462631,23.8880649 C46.8461429,15.1727494 49.3453676,6.52726762 57.8673142,5.33314838 C70.9184072,3.50431052 74.3897595,9.07893882 75.9243059,25.1867518" id="Fill-204" fill="#F5C287"></path>
                        <path d="M51.8593368,25.3275149 C53.1773747,27.2279049 53.4806401,28.789559 52.0887298,29.5887918 C50.7007076,30.3883785 47.2675881,30.0754814 45.9495502,28.1757992 C44.6315122,26.2743473 44.6937205,24.086545 46.0856308,23.2855424 C47.4775411,22.4866636 50.5412989,23.4264169 51.8593368,25.3275149" id="Fill-205" fill="#F5C287"></path>
                        <path d="M51.8916251,34.8749384 C54.1976904,38.4614605 57.0244802,40.8772166 59.9442566,41.5393832 C65.2296096,42.7375718 69.4623554,41.505379 72.8470642,38.9177741 C80.4645189,33.0935606 75.2721523,10 75.2721523,10 L72.9921232,10.7948923 C72.9921232,10.7948923 75.9267774,26.0236257 74.1414364,28.8492596 C73.3826665,30.0532984 69.3358938,28.5165309 64.3890116,29.1918604 C58.54202,29.9893122 54.1344596,33.2471276 53.1078886,32.2270036 C51.8767472,31.0065111 49.1131882,23.2221238 49.6078765,14.0962185 C49.8050079,10.4592386 46,14.5082901 46,14.5082901 C46,14.5082901 48.9123374,30.2383102 51.8916251,34.8749384" id="Fill-206" fill="#A17348"></path>
                        <path d="M55.0196631,24.1642983 C55.1560174,25.2638049 55.9260184,26.0830376 56.7441444,25.9932742 C57.5622704,25.9031321 58.1157086,24.9388388 57.9793542,23.8393322 C57.8429999,22.736417 57.072999,21.9179418 56.254873,22.0065689 C55.436747,22.0978472 54.8873192,23.0621406 55.0196631,24.1642983" id="Fill-207" fill="#70432A"></path>
                        <path d="M68.0206708,22.1607384 C68.1531483,23.2641526 68.9279405,24.082717 69.7428774,23.9933226 C70.5618288,23.9039283 71.1158253,22.9395299 70.9793334,21.8372521 C70.8428415,20.7376258 70.0720638,19.9179251 69.2531124,20.0065619 C68.4381755,20.0967138 67.884179,21.0618698 68.0206708,22.1607384" id="Fill-208" fill="#70432A"></path>
                        <path d="M62.5739714,24.0038616 C62.394127,23.9822765 62.2678533,24.0525917 62.1760179,24.1794861 C63.8711467,24.2658266 67.2920162,25.2911202 66.9897246,26.8651994 C66.8022273,27.8136368 63.6951288,27.6363772 62,27.7410323 C62.0573971,27.8002279 62.1147943,27.8460145 62.1721914,27.862694 C62.8800895,28.0726584 67.7703257,28.214597 67.9846084,26.93159 C68.3328177,24.8545119 62.6581539,24.013673 62.5739714,24.0038616" id="Fill-209" fill="#C47752"></path>
                        <path d="M57.923821,19.0129656 C57.923821,19.0129656 55.9830713,18.9005567 54.5211608,19.3377027 C53.4800484,19.6507305 52,20.5652243 52,20.5652243 L52.859734,22 C52.859734,22 53.9987908,21.6772145 55.1233374,21.2861249 C56.2406288,20.8977675 58,21.0527202 58,21.0527202 L57.923821,19.0129656" id="Fill-210" fill="#A17348"></path>
                        <path d="M66,18.0097615 C66,18.0097615 67.7687238,17.1584594 69.2642301,17.0196428 C70.3319353,16.9196308 72,17.2340685 72,17.2340685 L71.6584781,18.9430733 C71.6584781,18.9430733 70.5008987,19.0666881 69.3325345,19.1222948 C68.1677651,19.1763013 66.5823847,20 66.5823847,20 L66,18.0097615" id="Fill-211" fill="#A17348"></path>
                        <path d="M65.7606803,0.935034113 C66.307552,0.822972971 65.880992,0.559629288 66.4278638,0.465871466 C63.9924615,-0.979343726 58.3961404,1.23573151 56.3435483,3.05037493 C54.1597071,3.00853877 49.8430659,3.57183278 47.845161,5.97106183 C45.2347597,9.10429135 44.5566387,12.5217826 45.2602804,16.8436073 C45.7378818,18.7703119 46.2665245,20.6891722 46.7732923,22.6121414 C47.4295385,24.5653671 48.2534919,26.681455 49.2123404,29 C49.1503616,27.8005722 49.6133797,26.3355596 50.1711889,25.07786 C48.9899459,20.9726869 46.8170421,14.2878662 51.7498255,11.7000009 C52.0998234,11.5162207 52.4716962,11.3750236 52.8508606,11.252877 C54.0175204,10.6578323 55.3919915,10.3444347 56.5659429,10.2293852 C57.8529144,10.1035032 59.0888446,10.0739938 60.3138374,9.98322424 C60.747689,9.90403436 61.1815406,9.82820633 61.6153922,9.73893095 C61.7648705,9.75984903 61.9143488,9.77479051 62.0601813,9.79197322 C62.6945525,9.69597418 63.3289238,9.56411557 63.9742325,9.37286455 C64.6888116,9.15994838 65.4106823,8.96272077 66.1361989,8.83795937 C66.2638023,8.78939954 66.3950515,8.74532216 66.5335924,8.71133028 C66.6830706,8.6743501 66.8252573,8.6541791 66.967444,8.62765796 C68.8012873,8.14355383 70.1101338,8.57648337 71.03617,9.57308046 C72.972096,11.2222469 73.7851121,14.5497158 74.0950061,17.8174187 C74.3502129,18.7482732 74.5288577,19.6649334 74.6163572,20.5195863 C74.7366689,20.1643525 74.5944823,19.233498 74.9918758,18.8043038 C75.3382279,18.4326343 75.6153096,18.1524815 75.976245,17.9515185 C76.0382238,14.6651387 75.9835366,11.3813738 75.7574962,8.10395889 C74.2408385,1.69592927 68.9835779,1.15504749 65.7606803,0.935034113" id="Fill-212" fill="#A17348"></path>
                        <path d="M63.3125691,32.5809255 C65.1408035,32.4312661 66.9321784,32.0210886 68.6314043,31.2054847 C68.7530409,31.1445123 68.8636196,31.0764134 68.9705123,31.0071266 L69,31 C68.9447107,31.6837611 68.6129746,36.5619436 64.7353483,36.9669741 C62.0040546,37.2524354 60.8392923,35.6794285 59,32.5555863 C60.4117213,32.6937639 61.8861039,32.7456299 63.3125691,32.5809255" id="Fill-213" fill="#943728"></path>
                        <path d="M63.2756315,32.3539938 C65.0364042,32.2314324 67.3878158,31.6382646 68.6545319,31.1832965 C68.7808321,31.1360176 68.8885587,31.0647357 68.9962853,31.0010911 L69,31 C68.9888559,31.0690999 68.9665676,31.1858423 68.9257058,31.3469541 C68.1567608,32.3354459 66.4702823,33.7003502 64.3454681,33.9389266 C61.9643388,34.2084161 59.820951,33.5646962 59,32.4292763 C60.4078752,32.5529287 61.8566122,32.5045588 63.2756315,32.3539938" id="Fill-214" fill="#FFFFFE"></path>
                        <path d="M46.7593948,83.9854221 C46.7593948,83.9854221 43.5989502,75.4046818 44.0427113,72.7548394 C44.4900801,70.1057345 47.935542,67.4120169 48.2494218,68.1125457 C48.8627501,69.4940623 51.4315133,82.5132055 50.9372429,83.0610928 C50.7748913,83.2421242 47.1742934,84.1233157 46.7593948,83.9854221" id="Fill-215" fill="#A65C42"></path>
                        <path d="M46.8092237,78.0546215 C46.4641721,78.1237395 43.2349392,80.0353062 44.1688289,81.6197842 C45.1064691,83.2046112 48.4257155,86.2943258 49.7871691,85.9773604 C51.1523732,85.660395 52,84.7098479 52,83.600818 C52,82.4914391 49.9596949,77.4206907 46.8092237,78.0546215" id="Fill-216" fill="#CC2C2A"></path>
                        <path d="M46.4549647,79.0478087 C46.1577314,79.1082398 43.3283716,80.7806339 44.148585,82.1673859 C44.9687983,83.5537866 47.873407,86.2577247 49.0623401,85.9801635 C50.2550356,85.7029536 51,84.8709726 51,83.9005624 C51,82.9298009 49.2128379,78.4930376 46.4549647,79.0478087" id="Fill-217" fill="#FCE5B6"></path>
                        <path d="M88.2481186,83.9842672 C88.2481186,83.9842672 91.4034965,74.5636114 90.9566565,71.6509849 C90.5098165,68.7398647 86.7976072,66.3778278 86.4848192,67.1468456 C85.8729921,68.6634149 83.5769218,82.3566008 84.0684459,82.9599145 C84.2299957,83.159136 87.8322137,84.1349073 88.2481186,83.9842672" id="Fill-218" fill="#A65C42"></path>
                        <path d="M89.1900751,78.0546196 C89.5350801,78.1233859 92.7676268,80.0352303 91.8301133,81.6196491 C90.8925997,83.2040679 87.5738017,86.2940161 86.212532,85.9774116 C84.8512623,85.660458 84,84.7092483 84,83.6002598 C84,82.4912714 86.0437796,77.4207124 89.1900751,78.0546196" id="Fill-219" fill="#CC2C2A"></path>
                        <path d="M88.5433016,79.0478033 C88.8441825,79.1078805 91.668702,80.7805544 90.8525626,82.167247 C90.0326621,83.5535884 87.1291614,86.2574107 85.9369208,85.9802127 C84.7446802,85.7030147 84,84.8703667 84,83.899998 C84,82.9299807 85.7864804,78.493056 88.5433016,79.0478033" id="Fill-220" fill="#FCE5B6"></path>
                        <path d="M88.6792209,44.1552037 C91.2465602,45.3444806 96.0814596,50.9351335 94.7824167,52.0977399 C93.4833737,53.2603462 90.1204668,53.1067094 89.4940052,52.701018 C88.8637004,52.294951 88.6138844,52.104877 86.104195,46.2756926 C85.5545999,44.9906275 87.2917816,43.512859 88.6792209,44.1552037" id="Fill-221" fill="#76C5BC"></path>
                        <path d="M15.0020525,91 L15,90.9388489 C15.6096059,89.852518 16.2672414,88.8597122 16.976601,88 C16.9844007,88.0007994 16.9922003,88.001199 17,88.0015987 C16.2824302,88.8796962 15.6165846,89.8932854 15.0020525,91" id="Fill-244" fill="#DAC7CB"></path>
                        <path d="M23.4820765,69.1669116 C24.1736054,69.0146038 29.9885527,71.3572951 34.9161047,67.890375 C39.9962799,64.3149766 47.1986456,20.9178438 31.1041563,18.5923191 C18.9756922,16.8398662 15.5085998,18.6211736 12.1160021,28.7644352 C7.95883438,41.1915835 11.2049864,65.9520116 11.2296968,67.6927766 C11.2544073,69.4346373 15.0300168,71.0263818 23.4820765,69.1669116" id="Fill-254" fill="#7C4B2F"></path>
                        <path d="M44.8848205,64.4436306 L47,89.6538803 L44.7284038,91 L42.2044081,90.810576 L37,67.5125197 C37,67.5125197 40.999289,55.1915309 44.8848205,64.4436306" id="Fill-255" fill="#F5C287"></path>
                        <polyline id="Fill-256" fill="#339A9B" points="19.2356959 91.3978574 35 92 34.7923545 85.3989656 19 85 19.2356959 91.3978574"></polyline>
                        <path d="M41.7039612,59.8154254 C39.0019892,57.3931253 30.2976748,55.0757323 28.9540311,54.448468 C27.7021664,54.3000009 25.664674,53.7239197 23.8382731,54.1606089 C23.323944,54.3058089 18.7651006,55.3966244 17.1475886,56.1963138 C11.8512096,58.8142709 9.71092481,60.5860747 10.0310497,61.392298 C10.3251095,62.1317294 13.7572746,65.4517288 14.5634608,67.9339239 C14.418083,67.9611489 14.2679326,67.9883739 14.1247575,68.0148729 C15.0241911,71.4165474 17.9321149,86.344203 18.2327827,87.4597025 C18.9824331,90.2399207 34.0642824,90.7916809 34.7581311,88.8492671 C35.1068911,87.8778786 43.6827151,61.5883181 41.7039612,59.8154254" id="Fill-257" fill="#339A9B"></path>
                        <path d="M10.2665398,62.4982403 L1,87.0450155 L3.47767038,88.4892681 L6.10312106,89 L18,67.9326777 C18,67.9326777 16.7496959,54.6069175 10.2665398,62.4982403" id="Fill-258" fill="#E9AD7E"></path>
                        <path d="M6.00404024,70.3014723 C5.87709304,70.1089622 8.77590464,62.5580445 9.88163311,61.3147499 C11.230585,59.7972744 13.5991621,58.6440367 14.7074663,59.1012482 C15.8154026,59.5588243 18.4938044,66.7961839 17.9205182,67.5695058 C17.3472321,68.3420985 14.0013455,74 14.0013455,74 C14.0013455,74 8.20482624,73.6098753 6.00404024,70.3014723" id="Fill-259" fill="#E25C6E"></path>
                        <path d="M7.82353371,71.634856 C7.81431965,70.018829 5.09322453,37.0169563 9.59410678,27.1567496 C12.9244353,19.8614798 14.3065438,21.8019515 15.7476222,23.9771901 C16.1110246,24.5240073 14.183444,24.0778045 15.518745,43.8915414 C16.7596941,62.3054264 19.135815,71.5918397 18.9939185,72.6169396 C18.8516535,73.6416749 7.82795646,72.3664973 7.82353371,71.634856" id="Fill-260" fill="#7C4B2F"></path>
                        <path d="M25,71.2731193 C25,71.2731193 19.4500908,66.5706032 11.3785836,70.6929705 C3.30670238,74.8160903 5.89224728,79.8669966 9.02825821,80.9200682 C12.1646431,81.9742686 24.7404732,72.2701325 25,71.2731193" id="Fill-261" fill="#E2F3F8"></path>
                        <path d="M16.4077899,66.3498933 C21.0625884,68.3401596 20.7653789,74.2031824 17.950979,77.8535797 C15.1369502,81.5043551 9.85211197,82.0591187 6.14830977,79.0924382 C2.44413652,76.1268922 0.53360982,71.4789038 3.34800971,67.8285065 C6.16352274,64.1777311 12.0639297,64.4919837 16.4077899,66.3498933" id="Fill-262" fill="#F5C287"></path>
                        <path d="M5.16562724,78.4253511 C5.16562724,78.4253511 17.1607102,95.2723088 26.218064,95.9823606 C32.4234967,96.4693692 42.4589887,86.7535296 39.4501825,81.5029799 C36.4413763,76.2531675 30.685239,75.0277197 29.6540692,75.0103923 C28.6228994,74.9934337 22.9216351,68.1941155 19.9463418,70.4636271 C9.48144122,78.4456277 3.94995167,77.04875 5.16562724,78.4253511" id="Fill-263" fill="#E2F3F8"></path>
                        <path d="M46.9788549,73.2796606 C47.1586513,73.1278593 46.1510426,68.2566815 45.5030266,64.3841007 C45.1696542,62.3817859 42.566353,59.8326204 39.6896116,59.0103325 C38.5171896,58.6752721 35.6779057,66.5941823 36.0300068,67.4929195 C36.382108,68.3920225 38.1238851,74.7475615 38.1238851,74.7475615 C38.1238851,74.7475615 43.9185714,75.9001545 46.9788549,73.2796606" id="Fill-264" fill="#339A9B"></path>
                        <path d="M0.860830779,90.9260295 C1.68657376,91.0717016 4.47373406,91.1919914 7.53157512,89.3236367 L23,79.4043249 L22.3331107,77 L4.00420845,83.4073641 L1.42366905,84.57973 C1.42366905,84.57973 -1.36275067,90.5349956 0.860830779,90.9260295" id="Fill-265" fill="#F5C287"></path>
                        <path d="M47.7308288,90.5359892 C47.1466715,91.1052059 44.958872,92.7411821 41.3609092,93.007698 L22.8926073,94 L22,91.7934154 L40.6948955,86.5330318 L43.4891768,86 C43.4891768,86 49.3009843,89.0057844 47.7308288,90.5359892" id="Fill-266" fill="#F5C287"></path>
                        <path d="M21.6752435,76.7767872 C23.2173244,75.9543328 26.6652998,75.3434095 26.6652998,75.3434095 L31.8318811,75 L32.0866222,75.8735526 L27.3577652,77.2340404 L31.017427,79.9565188 L35,82.4381596 L34.5658637,83.3823479 L29.5571502,81.1806196 L33.9272168,84.427981 L33.6043055,84.8149742 L28.9974372,82.6793729 L31.79959,85.5852034 L31.1896463,86 L28.150692,83.8711617 L29.7437212,85.3229498 L29.2342389,85.5521399 L25.4597642,82.4648359 L21,78.1583154 L21.6752435,76.7767872" id="Fill-267" fill="#F5C287"></path>
                        <path d="M11.4699011,72.4137827 C11.956824,72.861653 12.1418942,73.4864814 11.8829278,73.810375 C11.6233016,74.1339153 11.017947,74.0332505 10.5306943,73.5860866 C10.0427818,73.1385696 9.8580414,72.5133879 10.1173377,72.1898476 C10.3769639,71.8663073 10.9823185,71.9662657 11.4699011,72.4137827" id="Fill-268" fill="#9F5E3A"></path>
                        <path d="M15.4696777,67.4138308 C15.957448,67.8609896 16.1419295,68.4861642 15.8825334,68.8100541 C15.6237973,69.1335908 15.0178796,69.0339867 14.5307694,68.5861215 C14.0433291,68.1389627 13.8578576,67.5141413 14.1172537,67.1898982 C14.3766498,66.8660083 14.9822374,66.966672 15.4696777,67.4138308" id="Fill-269" fill="#9F5E3A"></path>
                        <path d="M13,70.6303515 C13.1610525,70.5289392 13.5530967,70.2948813 13.7693305,70.1722611 C14.1296134,69.9651951 14.6134126,69.8630116 14.9220431,70.3492506 C15.0160438,70.5007906 15.0154022,70.7417893 14.970808,70.9947416 C14.853708,71.3957634 14.5194118,72.0019234 14.3416765,71.9999954 C14.2897034,71.5681257 14.4924628,71.4135009 14.5258282,71.0417845 C14.5579104,70.8590111 14.5043332,70.689348 14.4645513,70.6253387 C14.324673,70.4051623 14.0333668,70.4298406 13.8059042,70.5185281 C13.626244,70.5863933 13.2868146,70.7734083 13,70.6303515" id="Fill-270" fill="#DC8C69"></path>
                        <path d="M6.98747693,76.3329728 C7.13599497,77.1506288 5.93307465,77.8459723 4.992713,77.979597 C4.05007812,78.1153428 3.16844171,77.5592801 3.02106029,76.741624 C2.8733,75.923261 3.51889881,75.1515605 4.46039708,75.0179358 C5.40227422,74.8843111 6.84198987,75.5146097 6.98747693,76.3329728" id="Fill-271" fill="#F5C287"></path>
                        <path d="M16.6118076,71 C16.6118076,71 16.443263,71.3249603 16.1236312,71.772973 C15.8747818,72.1214626 15,72.6352941 15,72.6352941 L15.4634185,73 C15.4634185,73 16.1541025,72.6158983 16.5235677,72.2317965 C16.9974607,71.7402226 17,71.3669316 17,71.3669316 L16.6118076,71" id="Fill-272" fill="#E6807C"></path>
                        <path d="M27.3266337,91.4463885 C26.9256402,91.4784906 21.1301502,89 21.1301502,89 L15.571095,89.9682967 L15.55445,90.8012063 L18.6617708,90.5436917 L14.0242439,92.1651962 C13.9395057,92.5804297 14.0900674,93.1551269 14.2720276,93.5054584 L16.1521572,92.7461742 L14.4831166,93.9726833 L15.2510569,95.2117541 L16.2213853,95.0135586 L15.8873502,95.6856089 L17.6328066,96 L28,93.7594836 L27.3266337,91.4463885" id="Fill-273" fill="#F5C287"></path>
                        <path d="M20,55.4539666 C20,55.4539666 21.0497086,60.6341116 26.3406718,59.9351291 C31.632007,59.2358009 32.0450438,56.3451521 31.9966701,55.5925878 C31.9817859,55.3537169 25.8867035,54 25.8867035,54 C25.8867035,54 21.0939891,55.1594399 20,55.4539666" id="Fill-274" fill="#EAA96E"></path>
                        <path d="M21,33 C21.1285141,32.7410517 21.3287435,32.5231993 21.6006885,32.3460009 L22,32.3274414 C21.8932874,32.2134335 21.7745267,32.1051701 21.653471,32 C21.3379231,32.2686699 21.1009753,32.5899249 21,33" id="Fill-275" fill="#BE2B3E"></path>
                        <path d="M30,56.9185923 L29.3236894,41 L23.3732643,41.464961 L23,57.3809885 C25.0226493,58.4318222 28.1299826,58.0562627 30,56.9185923" id="Fill-276" fill="#EAA96E"></path>
                        <path d="M11.0064036,36.8146746 C11.1824052,43.563279 18.4949052,53.0392515 25.4209349,52.9998777 C33.2566729,52.956129 38.1957179,41.1432457 37.9940494,33.9086659 C37.7520472,25.1319438 31.8963272,21.9124027 24.0224555,21.0607609 C16.1467504,20.2076609 10.7886017,28.4820019 11.0064036,36.8146746" id="Fill-277" fill="#F5C287"></path>
                        <path d="M34.2994354,39.7351004 C33.7879383,41.4137526 33.8831005,42.6342966 34.9655712,42.9411393 C36.0480418,43.2504971 38.2764245,42.3195493 38.7918867,40.6398192 C39.3033839,38.9626042 38.8394679,37.3543749 37.7569972,37.0453764 C36.6745266,36.7349407 34.8109325,38.0593226 34.2994354,39.7351004" id="Fill-278" fill="#F5C287"></path>
                        <path d="M24.60475,17 L22.3466133,17.1413917 C18.9614294,17.732868 15.6309993,20.1557741 13.4492976,23.0080372 C12.5111327,24.2342957 10.8703548,27.970442 11.0081581,30.3855753 C11.0537251,31.1824767 16.8627771,22.1448816 18.7115461,21.5026967 C22.0122106,20.3552771 27.8359616,22.7415398 30.4817849,24.9764171 C33.2525499,27.316783 37.1588139,34.5236887 36.5451299,38 C38.1987695,35.8806049 38.9520942,36.6978638 39.657647,33.6664552 C40.6718793,29.3358714 39.2460745,25.5456853 37.8129202,23.3803934 C34.3770247,18.1766603 29.7358097,18.0300867 24.60475,17" id="Fill-279" fill="#7C4B2F"></path>
                        <path d="M28.9217413,46.4251701 C28.8356566,46.3936204 28.753485,46.3620706 28.6713133,46.3287181 C28.4326241,46.2337684 28.1861091,46.1343117 27.9356811,46.0543857 C27.9278552,46.0567895 27.7674248,46.0210331 27.6735143,46 C27.6422108,46.0012019 27.6069944,46.0015024 27.5522133,46.0024038 C27.1374419,46.3933199 25.9322573,46.8145838 24.9481536,46.835016 C24.1291758,46.8515421 22.4806554,46.6324969 22.2478357,46.1889979 C21.9473221,46.3773948 21.6471998,46.5687965 21.3369039,46.7496815 C21.2242113,46.8238985 21.1107361,46.9011202 21,46.97714 C21.2750795,47.3809765 23.6478846,48.1339633 24.7360724,47.9783179 C24.7388114,47.977717 24.6914649,48.0116705 25.0095867,47.9957454 C26.4565909,47.9194251 28.3269748,47.2340449 29,46.5165141 L28.9217413,46.4251701" id="Fill-280" fill="#CF7161"></path>
                        <path d="M14.0082043,38.2316728 C13.8779677,40.3997529 15.3132282,42.737267 17.2485517,42.8623702 L19.3004426,42.9942357 C21.2380442,43.1189633 22.8688494,41.2010897 22.9979469,39.0330096 L22.9914921,38.7133014 C23.1232475,36.54447 21.7100095,35.2660128 19.7739266,35.1401582 L17.721656,35.0090441 C15.7855732,34.8839408 14.1392003,36.0617144 14.0082043,38.2316728" id="Fill-281" fill="#F5C287"></path>
                        <path d="M22.7726449,39.5112933 L22.768202,39.2048253 L22.769683,39.1843941 C22.7733854,39.0990209 22.7763474,39.0158367 22.7756069,38.9348416 C22.7670913,38.1095672 22.4964438,37.5301968 22.0632596,37.1062495 C21.6252623,36.6852209 20.9891851,36.4174262 20.2057512,36.3674428 L18.2027374,36.2390181 C18.1209137,36.2353697 18.0398305,36.2317212 17.9639307,36.2302619 C16.4563018,36.2667462 15.35594,37.1033307 15.2304277,38.7940123 L14.6198972,38.755339 L15.2300575,38.7958365 C15.2256146,38.8812097 15.2241336,38.9640291 15.2233931,39.0464835 C15.217099,40.8243626 16.4892534,42.6055252 17.8154633,42.6376313 L19.8169962,42.766056 C19.8606849,42.7693396 19.908076,42.770799 19.9573183,42.7697044 C21.3257359,42.8003512 22.6649043,41.2869832 22.7726449,39.5112933 Z M19.7436881,43.9944818 L17.7414148,43.8660571 C15.4673831,43.6650287 14.0267682,41.3063199 14.0001107,39.0494023 C13.9993702,38.936301 14.0023322,38.8242943 14.0093668,38.7137469 C14.1245123,36.3991841 15.9353701,34.9733784 17.9572663,35.0003767 C18.0653773,35.0000119 18.1731179,35.0051197 18.2764157,35.0116869 L20.2779486,35.1386522 C21.2927842,35.203959 22.2228343,35.5604105 22.9077836,36.2189517 C23.5934733,36.8738446 23.9966678,37.8264492 24,38.9326526 C23.9992595,39.0293359 23.9977785,39.1285732 23.9933356,39.2307292 L23.9974083,39.5488721 L23.9970381,39.572222 C23.8493112,41.8634349 22.2058031,43.9627404 19.9654636,43.9999544 C19.8932662,44.0003192 19.8199582,43.998495 19.7436881,43.9944818 Z" id="Fill-282" fill="#C83B55"></path>
                        <path d="M26.0102405,38.8703756 C26.1663724,41.031874 28.0744813,43.1402055 30.2304065,42.9926859 L32.5167614,42.8380525 C34.6726866,42.6882864 36.1035765,40.5387693 35.9462937,38.3783942 L36,38.0923411 C35.838881,35.9330892 34.1049341,34.8656317 31.9490088,35.0135257 L29.662654,35.1685335 C27.5105649,35.3168019 25.8537249,36.7092517 26.0102405,38.8703756" id="Fill-283" fill="#F5C287"></path>
                        <path d="M29.54143,41.7739276 C29.5938474,41.7739276 29.6500089,41.7724724 29.7024262,41.7691983 L31.933909,41.6182237 C33.5326391,41.527639 34.7270065,39.9294917 34.7157742,38.1865544 C34.7157742,38.1036093 34.7157742,38.0199367 34.708286,37.9351727 L34.7045419,37.8602311 L34.7157742,37.7860171 L34.7532152,37.5906597 C34.6745891,36.7866748 34.3525966,36.2438941 33.8696079,35.853543 C33.3678987,35.4548248 32.6527759,35.2256345 31.7953773,35.2281811 C31.6867985,35.2274535 31.5782196,35.2314552 31.4696407,35.2398225 L29.238158,35.3915246 C27.4372466,35.5439543 26.235391,36.5392949 26.235391,38.1207076 C26.2391351,38.1920113 26.2391351,38.2593132 26.2466233,38.3266151 L25.6277238,38.3760911 L26.2428792,38.3346185 C26.351458,40.0731904 27.9501881,41.8168553 29.54143,41.7739276 Z M25.0103219,38.4179274 L25.0110707,38.4164722 C25.0035825,38.3149737 25.0002129,38.2163855 25.0002129,38.1232542 C24.976625,35.7956998 26.9168169,34.2892286 29.1482996,34.1673576 L31.3722942,34.0171106 C31.5145699,34.0061968 31.6531016,34.0007399 31.7878891,34.0000123 C32.8624454,33.9978295 33.8696079,34.2859544 34.6408922,34.8967647 C35.4121765,35.5046645 35.9176298,36.4450722 35.9925118,37.5775631 L36,37.6543236 L35.9850236,37.731448 L35.9475826,37.9344451 C35.9550708,38.0170263 35.9550708,38.0999714 35.9550708,38.1840078 C35.9700472,40.4391672 34.4349668,42.656492 32.0237673,42.8427545 L29.7847964,42.9930015 C29.7099144,42.9966394 29.6312884,43.0006412 29.5489182,42.9999136 C27.1002777,42.9660807 25.1986501,40.7422076 25.0103219,38.4179274 Z" id="Fill-284" fill="#C83B55"></path>
                        <path d="M24.7734698,39.007581 L24.7770638,39.0079682 C25.2498366,39.0428142 25.4971684,39.2007829 26,39.6696557 C25.9771292,39.7803887 25.9542583,39.8934447 25.9346548,40.0045649 C25.8823786,40.2368718 25.8301024,40.4711146 25.7810934,40.7053574 C25.3475278,40.4320096 24.8989327,40.3336663 24.5666521,40.3088869 L24.4862775,40.2841075 C24.0233065,40.2686204 23.6871052,40.4726633 23.2904596,41 L23,39.8001348 C23.4907428,39.1469652 24.1262252,38.957635 24.7734698,39.007581" id="Fill-285" fill="#C83B55"></path>
                        <path d="M35.7587657,37.2850679 C35.7587657,37.2850679 36.5160481,37.1574661 37.445781,37 C37.7419459,37.0286576 38.0531064,37.0660633 38.3117821,37.1740573 C38.4504923,37.2307692 38.607947,37.2914027 38.6866744,37.4045249 C38.851627,37.6500754 39.1103027,37.8630468 38.949099,38.0944193 L38.7129168,38.1457014 C38.5029772,38.2015083 38.4354966,38.2503771 37.9818769,38.3342383 C36.8384555,38.5493213 36.1973897,38.6895928 35.0877085,39 L35.1027042,37.5644042 C35.2938993,37.3119155 34.4278981,37.4772247 35.7587657,37.2850679" id="Fill-286" fill="#C83B55"></path>
                        <path d="M13.9477473,37.1661929 C13.946957,37.1661929 12.9887472,37.0919579 11.8112357,37 C11.4484989,37.0571811 11.065215,37.1260659 10.7574024,37.2681826 C10.5957909,37.3420833 10.4069149,37.4230062 10.3223554,37.5547567 C10.1480995,37.8403277 9.85530217,38.0981441 10.083692,38.3395753 L10.3839969,38.3753553 C10.6526908,38.4184919 10.744758,38.46631 11.3173131,38.519144 C12.7658893,38.6565792 13.5830348,38.7548905 15,39 L14.7961087,37.4169871 C14.5262294,37.1554924 15.6251084,37.2614947 13.9477473,37.1661929" id="Fill-287" fill="#C83B55"></path>
                        <path d="M31.9978641,39.0441648 C31.9678934,40.1494668 31.4943567,41.0226824 30.9398992,40.9995509 C30.3884388,40.9729496 29.9688493,40.0584828 30.001817,38.9554939 C30.0317877,37.851734 30.5083215,36.9762052 31.0597819,37.0004934 C31.6112424,37.0278657 32.0338289,37.9411759 31.9978641,39.0441648" id="Fill-288" fill="#70432A"></path>
                        <path d="M19.99828,39.0461213 C19.9659544,40.1505343 19.4909484,41.0241859 18.9396181,40.999489 C18.3876892,40.9736345 17.9683549,40.0610081 18.0018777,38.953508 C18.0354005,37.8502527 18.5086107,36.9754434 19.0602403,37.0005262 C19.6112713,37.0229077 20.0303062,37.9405506 19.99828,39.0461213" id="Fill-289" fill="#70432A"></path>
                        <path d="M19.0742984,32.5666466 C18.5982668,32.0409008 20.5091724,24.7513681 21.9707854,21.6428183 C23.4323984,18.5342685 30.3356107,18.265701 31.8307418,20.3245963 C33.3221068,22.3831242 34,30.7766862 34,31.9751367 C34,33.1735872 19.6945707,33.2522102 19.0742984,32.5666466" id="Fill-290" fill="#7C4B2F"></path>
                        <path d="M24.767442,40.0000862 C24.6018746,40.0544492 25.0656984,39.990848 25.1752939,40.0921124 C23.8499711,40.9743567 22.5598756,42.3227728 22.7888519,42.8806156 C23.1395575,43.7315922 24.371724,43.5745435 26,43.376989 C25.9561618,43.4430774 25.9095837,43.4974404 25.8622228,43.5205358 C25.2257861,43.8385417 22.4921612,44.5015574 22.0537792,43.3460767 C21.5445515,42.0051222 24.8206741,39.9848077 24.767442,40.0000862" id="Fill-291" fill="#C47752"></path>
                        <polyline id="Fill-292" fill="#70432A" points="41 95 41 95.002 41 95"></polyline>
                        <path d="M15.9082555,55.8082619 L16,55.7998584 C15.657092,52.5027785 15.3277886,48.7351047 15.0567413,44.4730881 C13.7929002,24.6149773 15.6169756,25.0621876 15.2733699,24.5141358 C13.9094122,22.3339855 12.6856875,19.30947 9.53358482,26.6208471 C7.22008936,31.9873708 6.83811144,45.2736092 7.05125163,55.5682152 C9.86567886,56.0932489 12.6085943,56.0961718 15.9082555,55.8082619" id="Fill-293" fill="#7C4B2F"></path>
                        <path d="M14.025691,30.6738692 C19.4064,26.229988 24.8245847,21.9149309 31,18.7747948 C29.1188645,16.1957269 17.9202294,15.8336165 12.6953019,21.7595298 C8.07770202,26.9977654 8.90584256,30.9436987 9.37759608,35 C10.821882,33.4766261 12.3616943,32.0488553 14.025691,30.6738692" id="Fill-294" fill="#7C4B2F"></path>
                    </g>
                </g>
                <path d="M36.4930124,18.0944797 C34.1851143,16.9405306 29.569318,7.70893809 30.723267,4.24709088 C31.8772161,0.785243669 33.0311652,-0.368705401 36.4930124,-0.368705401 C38.8009105,-0.368705401 40.724159,1.93919274 42.2627577,6.55498902 C43.8013565,4.24709088 45.724605,3.4777915 48.0325031,4.24709088 C51.4943503,5.40103995 52.6482994,10.0168362 50.3404012,12.3247344 C48.0325031,14.6326325 38.8009105,19.2484288 36.4930124,18.0944797 Z" id="Path-11" fill="#FF6160" mask="url(#mask-2)" transform="translate(41.041106, 8.953967) rotate(-42.000000) translate(-41.041106, -8.953967) "></path>
            </g>
        </g>
    </g>
</svg>